<svg width="24" height="24" viewBox="0 0 24 24" fill="none" xmlns="http://www.w3.org/2000/svg">
<g id="copyright" clip-path="url(#clip0_3614_967)">
<path id="Vector" d="M12 21C16.9706 21 21 16.9706 21 12C21 7.02944 16.9706 3 12 3C7.02944 3 3 7.02944 3 12C3 16.9706 7.02944 21 12 21Z" stroke="#8F9BB3" stroke-width="2" stroke-linecap="round" stroke-linejoin="round"/>
<path id="Vector_2" d="M14.4996 9C13.9944 8.49083 13.3714 8.15907 12.7054 8.04453C12.0393 7.92999 11.3585 8.03753 10.7445 8.35425C10.1306 8.67097 9.60972 9.18342 9.24432 9.83009C8.87893 10.4768 8.68457 11.2302 8.68457 12C8.68457 12.7698 8.87893 13.5232 9.24432 14.1699C9.60972 14.8166 10.1306 15.329 10.7445 15.6458C11.3585 15.9625 12.0393 16.07 12.7054 15.9555C13.3714 15.8409 13.9944 15.5092 14.4996 15" stroke="#8F9BB3" stroke-width="2" stroke-linecap="round" stroke-linejoin="round"/>
</g>
<defs>
<clipPath id="clip0_3614_967">
<rect width="24" height="24" fill="white"/>
</clipPath>
</defs>
</svg>
